# xmcd CD database file
#
# Track frame offsets:
#	150
#	14936
#	28338
#	40670
#	54496
#	68027
#	81798
#	95524
#	108904
#	123193
#	135104
#	146230
#	160318
#	177545
#	197490
#	211632
#
# Disc length: 3024 seconds
#
# Revision: 1
# Processed by: cddbd v1.5.2PL0 Copyright (c) Steve Scherf et al.
# Submitted via: CDex 1.70beta2
#
DISCID=db0bce10
DTITLE=Lester Young - Lester Leaps Again
DYEAR=1900
DGENRE=Jazz
TTITLE0=Every Tub (Basie)
TTITLE1=One O'Clock Jump (Basie)
TTITLE2=Swinging The Blues (Basie)
TTITLE3=Jumpin' at the Woodside (Basie)
TTITLE4=Shoe Shine Boy (Gabler)
TTITLE5=The Man I Love (Gershwin)
TTITLE6=Five O'Clock Whistle
TTITLE7=Broadway (Woode - McRae)
TTITLE8=Oh! Lady Be Good (Gershwin)
TTITLE9=Jive At Five (Edison)
TTITLE10=Clap Hands! Here Comes Charley (Meyer - Rose - Mc)
TTITLE11=Mean To Me (Turk - Ahlert)
TTITLE12=All Of Me (Simons - Marks)
TTITLE13=Lester Leaps Again (Young)
TTITLE14=Afternoon on a Basie-Ite (Young)
TTITLE15=Blue Lester (Young)
EXTD=
EXTT0=
EXTT1=
EXTT2=
EXTT3=
EXTT4=
EXTT5=
EXTT6=
EXTT7=
EXTT8=
EXTT9=
EXTT10=
EXTT11=
EXTT12=
EXTT13=
EXTT14=
EXTT15=
PLAYORDER=
